<svg width="117" height="27" viewBox="0 0 117 27" fill="none" xmlns="http://www.w3.org/2000/svg">
<g clip-path="url(#clip0_897_3292)">
<path d="M0.113281 8.43757C0.113281 4.45987 0.113281 2.47157 1.3488 1.23551C2.58487 0 4.57319 0 8.55092 0H18.6759C22.6536 0 24.6419 0 25.878 1.23551C27.1135 2.47101 27.1135 4.45987 27.1135 8.43757V18.5624C27.1135 22.5401 27.1135 24.5284 25.878 25.7645C24.6425 27 22.6536 27 18.6759 27H8.55092C4.57319 27 2.58487 27 1.3488 25.7645C0.113281 24.529 0.113281 22.5401 0.113281 18.5624V8.43757Z" fill="#0057B7"/>
<path fill-rule="evenodd" clip-rule="evenodd" d="M20.4648 11.1423C20.4648 10.8352 20.4416 10.5315 20.398 10.2327H21.7689L22.5582 8.92867H20.0616C19.8424 8.35096 19.5375 7.8097 19.1525 7.32367C19.0619 7.20879 18.9664 7.09723 18.8669 6.98898C17.8142 5.84405 16.4152 5.21387 14.9272 5.21387H6.14238C6.05732 5.21387 5.98828 5.28291 5.98828 5.36796V21.6295C5.98828 21.7145 6.05732 21.7836 6.14238 21.7836H7.94463C8.02969 21.7836 8.09873 21.7145 8.09873 21.6295V17.0708H13.7562C14.2605 17.0708 14.7394 17.2939 15.0636 17.6805L17.9954 21.1738C18.3196 21.5605 18.7985 21.7836 19.3027 21.7836H21.0569C21.1376 21.7836 21.1818 21.6891 21.1298 21.6273L16.9586 16.6571C17.6656 16.3566 18.3146 15.8971 18.8675 15.2957C19.3911 14.7268 19.7949 14.0662 20.0655 13.3493H21.7694L22.5587 12.0453H20.4008C20.4433 11.7487 20.4654 11.4477 20.4654 11.1429L20.4648 11.1423ZM17.3143 13.8674C16.6659 14.5721 15.8181 14.9604 14.9272 14.9604H8.09763V7.32367H14.9272C15.8181 7.32367 16.6654 7.71194 17.3143 8.41724C17.4613 8.57685 17.5927 8.74807 17.7098 8.92867H14.2644L13.4751 10.2327H18.2555C18.3212 10.527 18.3555 10.8319 18.3555 11.1423C18.3555 11.4527 18.3218 11.7526 18.2572 12.0448H14.2649L13.4757 13.3488H17.7148C17.5966 13.5316 17.4635 13.7056 17.3149 13.8674H17.3143V13.8674Z" fill="white"/>
<path d="M45.7083 16.2442C46.9066 15.836 47.8318 15.1827 48.4798 14.2852C49.1279 13.3888 49.4522 12.3035 49.4522 11.0293C49.4522 9.23544 48.8195 7.82707 47.5564 6.8053C46.2932 5.78298 44.5579 5.271 42.3525 5.271H35.8736C35.786 5.271 35.7148 5.34003 35.7148 5.42509V21.6369C35.7148 21.722 35.786 21.791 35.8736 21.791H37.9879C38.0755 21.791 38.1466 21.722 38.1466 21.6369V16.7634H42.3531C42.3997 16.7634 42.4487 16.7634 42.5016 16.7617C43.0888 16.7501 43.6441 17.0202 43.9821 17.4869L46.5698 21.0631C46.8992 21.5182 47.4357 21.7888 48.0087 21.7888H49.4397C49.5683 21.7888 49.6434 21.648 49.5694 21.5463L45.7095 16.242V16.2436L45.7083 16.2442ZM42.2797 14.7579H38.1461V7.32392H42.2797C43.8188 7.32392 44.9937 7.64646 45.8056 8.29211C46.6158 8.92118 47.021 9.83359 47.021 11.0304C47.021 12.2273 46.6153 13.1469 45.8056 13.7909C44.9948 14.4348 43.8199 14.7591 42.2797 14.7591V14.7574V14.7579Z" fill="#001747"/>
<path d="M64.0772 15.6072C64.0772 14.3479 63.8018 13.2306 63.2499 12.2553C62.7145 11.2793 61.9618 10.5243 60.9888 9.99025C60.0329 9.43905 58.9382 9.16455 57.7058 9.16455C56.4734 9.16455 55.3645 9.43905 54.3745 9.99025C53.4021 10.5249 52.6334 11.281 52.0656 12.2553C51.5148 13.2312 51.2383 14.3236 51.2383 15.5354C51.2383 16.7472 51.5211 17.8639 52.0889 18.8393C52.6715 19.8152 53.4914 20.579 54.5446 21.1286C55.5995 21.6632 56.8057 21.9316 58.1678 21.9316C59.2381 21.9316 60.2014 21.7577 61.0611 21.4125C61.8924 21.0833 62.5916 20.6138 63.1589 20.003C63.2118 19.9461 63.2118 19.8594 63.16 19.8014L62.0761 18.5698C62.0158 18.5013 61.9071 18.4974 61.8423 18.5626C60.9177 19.4877 59.7183 19.9494 58.2418 19.9494C56.9787 19.9494 55.9158 19.6191 55.0578 18.9586C54.2146 18.2815 53.7202 17.3928 53.5751 16.2909H63.886C63.9674 16.2909 64.0357 16.2307 64.0437 16.1523C64.0664 15.9325 64.0778 15.7497 64.0778 15.6066L64.0761 15.6083H64.0767L64.0772 15.6072ZM53.5734 14.6622C53.7031 13.5918 54.1412 12.7269 54.8866 12.0669C55.6473 11.4064 56.5878 11.0761 57.7058 11.0761C58.8239 11.0761 59.7564 11.4141 60.5018 12.0907C61.2625 12.7512 61.7097 13.6084 61.8394 14.6639H53.5734V14.6622V14.6622Z" fill="#001747"/>
<path d="M116.552 15.6072C116.552 14.3479 116.276 13.2306 115.725 12.2553C115.189 11.2793 114.436 10.5243 113.463 9.99025C112.508 9.43905 111.413 9.16455 110.18 9.16455C108.948 9.16455 107.839 9.43905 106.849 9.99025C105.877 10.5249 105.108 11.281 104.54 12.2553C103.989 13.2312 103.713 14.3236 103.713 15.5354C103.713 16.7472 103.996 17.8639 104.564 18.8393C105.146 19.8152 105.966 20.579 107.019 21.1286C108.074 21.6632 109.28 21.9316 110.642 21.9316C111.713 21.9316 112.676 21.7577 113.536 21.4125C114.367 21.0833 115.066 20.6138 115.634 20.003C115.686 19.9461 115.686 19.8594 115.635 19.8014L114.551 18.5698C114.49 18.5013 114.382 18.4974 114.317 18.5626C113.392 19.4877 112.193 19.9494 110.716 19.9494C109.453 19.9494 108.39 19.6191 107.532 18.9586C106.689 18.2815 106.195 17.3928 106.05 16.2909H116.361C116.442 16.2909 116.51 16.2307 116.518 16.1523C116.541 15.9325 116.552 15.7497 116.552 15.6066L116.551 15.6083H116.551L116.552 15.6072ZM106.048 14.6622C106.178 13.5918 106.616 12.7269 107.361 12.0669C108.122 11.4064 109.062 11.0761 110.18 11.0761C111.298 11.0761 112.231 11.4141 112.976 12.0907C113.737 12.7512 114.184 13.6084 114.314 14.6639H106.048V14.6622V14.6622Z" fill="#001747"/>
<path d="M81.5026 23.0389C80.9524 24.3136 80.3026 25.2094 79.5572 25.7292C78.8272 26.2483 77.9442 26.5085 76.907 26.5085C76.2743 26.5085 75.6586 26.4063 75.0589 26.2019C74.5212 26.028 74.0649 25.7744 73.6928 25.4392C73.6382 25.39 73.6245 25.3116 73.6609 25.2487L74.4996 23.8198C74.5491 23.7353 74.6658 23.7171 74.7414 23.7806C75.373 24.3097 76.095 24.5737 76.9075 24.5737C77.4748 24.5737 77.9448 24.4235 78.3174 24.1247C78.7072 23.8408 79.0554 23.3454 79.3632 22.6385L79.7763 21.7647L74.185 9.49525C74.1389 9.39362 74.2151 9.2793 74.3301 9.2793H76.4142C76.4774 9.2793 76.5343 9.31575 76.5593 9.37153L81.015 19.286L85.4228 9.37208C85.4479 9.31575 85.5053 9.2793 85.5685 9.2793H87.5064C87.6208 9.2793 87.6976 9.39362 87.6515 9.49525L81.502 23.0394L81.5026 23.0389Z" fill="#001747"/>
<path d="M96.2936 9.16016C97.9316 9.16016 99.2272 9.62409 100.185 10.5531C101.158 11.466 101.643 12.8109 101.643 14.5882V21.6323C101.643 21.7174 101.572 21.7864 101.484 21.7864H100.396C99.7962 21.7864 99.3097 21.3142 99.3097 20.7315V14.8478C99.3097 13.6366 99.0093 12.7236 98.4096 12.1095C97.8099 11.4953 96.9513 11.1893 95.8332 11.1893C94.5678 11.1893 93.5721 11.5511 92.8421 12.2746C92.1121 12.9832 91.7486 14.0055 91.7486 15.3432V21.6323C91.7486 21.7174 91.6774 21.7864 91.5898 21.7864H89.5728C89.4852 21.7864 89.4141 21.7174 89.4141 21.6323V9.433C89.4141 9.34794 89.4852 9.2789 89.5728 9.2789H91.4914C91.579 9.2789 91.6501 9.34794 91.6501 9.433V11.1672C92.1201 10.5216 92.7528 10.0262 93.5465 9.68098C94.3568 9.33413 95.2722 9.16181 96.293 9.16181V9.16016H96.2936Z" fill="#001747"/>
<path d="M71.8117 6.00039C70.4183 6.00039 69.7207 6.73164 69.7207 8.19525V9.28053H72.738C72.8256 9.28053 72.8968 9.34957 72.8968 9.43462V10.9916C72.8968 11.0766 72.8256 11.1457 72.738 11.1457H69.7691V21.6351C69.7691 21.7201 69.698 21.7891 69.6104 21.7891H69.1933C68.2221 21.7891 67.4352 21.0248 67.4352 20.0825V11.1446H64.6836L65.8511 9.27998H67.4352V8.1704C67.4352 6.92716 67.8078 5.94405 68.5532 5.22053C69.2986 4.49701 70.3443 4.13525 71.6894 4.13525C72.2072 4.13525 72.6942 4.19822 73.1477 4.32469C73.5534 4.43736 73.9078 4.59367 74.2105 4.79526C74.272 4.83613 74.2964 4.9129 74.2691 4.97973L73.6842 6.4091C73.6467 6.50078 73.5323 6.53392 73.4475 6.47924C72.9542 6.16056 72.4086 6.00094 71.8112 6.00094V5.99928L71.8117 6.00039Z" fill="#001747"/>
</g>
<defs>
<clipPath id="clip0_897_3292">
<rect width="116.438" height="27" fill="white" transform="translate(0.113281)"/>
</clipPath>
</defs>
</svg>
